<svg width="800" height="500" xmlns="http://www.w3.org/2000/svg">
  <!-- Title -->
  <text x="400" y="30" font-family="Arial, sans-serif" font-size="20" font-weight="bold" text-anchor="middle" fill="#2c3e50">
    MNIST Training Convergence (60K Samples, 50 Epochs)
  </text>

  <!-- Chart area background -->
  <rect x="80" y="60" width="650" height="360" fill="#f8f9fa" stroke="#dee2e6" stroke-width="1"/>

  <!-- Grid lines -->
  <g stroke="#e9ecef" stroke-width="1">
    <!-- Horizontal grid lines (every 10%) -->
    <line x1="80" y1="420" x2="730" y2="420"/>  <!-- 0% -->
    <line x1="80" y1="384" x2="730" y2="384"/>  <!-- 10% -->
    <line x1="80" y1="348" x2="730" y2="348"/>  <!-- 20% -->
    <line x1="80" y1="312" x2="730" y2="312"/>  <!-- 30% -->
    <line x1="80" y1="276" x2="730" y2="276"/>  <!-- 40% -->
    <line x1="80" y1="240" x2="730" y2="240"/>  <!-- 50% -->
    <line x1="80" y1="204" x2="730" y2="204"/>  <!-- 60% -->
    <line x1="80" y1="168" x2="730" y2="168"/>  <!-- 70% -->
    <line x1="80" y1="132" x2="730" y2="132"/>  <!-- 80% -->
    <line x1="80" y1="96" x2="730" y2="96"/>   <!-- 90% -->
    <line x1="80" y1="60" x2="730" y2="60"/>   <!-- 100% -->

    <!-- Vertical grid lines (every 10 epochs) -->
    <line x1="80" y1="60" x2="80" y2="420"/>    <!-- 0 -->
    <line x1="210" y1="60" x2="210" y2="420"/>  <!-- 10 -->
    <line x1="340" y1="60" x2="340" y2="420"/>  <!-- 20 -->
    <line x1="470" y1="60" x2="470" y2="420"/>  <!-- 30 -->
    <line x1="600" y1="60" x2="600" y2="420"/>  <!-- 40 -->
    <line x1="730" y1="60" x2="730" y2="420"/>  <!-- 50 -->
  </g>

  <!-- Y-axis labels -->
  <g font-family="monospace" font-size="12" text-anchor="end" fill="#495057">
    <text x="70" y="424">0%</text>
    <text x="70" y="388">10%</text>
    <text x="70" y="352">20%</text>
    <text x="70" y="316">30%</text>
    <text x="70" y="280">40%</text>
    <text x="70" y="244">50%</text>
    <text x="70" y="208">60%</text>
    <text x="70" y="172">70%</text>
    <text x="70" y="136">80%</text>
    <text x="70" y="100">90%</text>
    <text x="70" y="64">100%</text>
  </g>

  <!-- X-axis labels -->
  <g font-family="monospace" font-size="12" text-anchor="middle" fill="#495057">
    <text x="80" y="445">0</text>
    <text x="210" y="445">10</text>
    <text x="340" y="445">20</text>
    <text x="470" y="445">30</text>
    <text x="600" y="445">40</text>
    <text x="730" y="445">50</text>
  </g>

  <!-- Axis labels -->
  <text x="405" y="475" font-family="Arial, sans-serif" font-size="14" font-weight="bold" text-anchor="middle" fill="#2c3e50">
    Epoch
  </text>
  <text x="25" y="240" font-family="Arial, sans-serif" font-size="14" font-weight="bold" text-anchor="middle" fill="#2c3e50" transform="rotate(-90 25 240)">
    Test Accuracy (%)
  </text>

  <!-- Training curve (polyline with data points) -->
  <!-- Each point: x = 80 + (epoch * 13), y = 420 - (accuracy * 3.6) -->
  <polyline points="
    80,407.2
    93,143.68
    106,119.04
    119,110.76
    132,106.08
    145,103.56
    158,100.32
    171,98.88
    184,98.16
    197,97.8
    210,96.72
    223,96.36
    236,95.64
    249,94.56
    262,94.56
    275,93.84
    288,93.84
    301,92.88
    314,92.52
    327,91.76
    340,91.28
    353,91.28
    366,90.6
    379,90.6
    392,89.88
    405,89.88
    418,89.88
    431,89.16
    444,89.16
    457,88.8
    470,88.8
    483,88.44
    496,88.44
    509,88.08
    522,88.08
    535,87.72
    548,87.72
    561,87
    574,87
    587,87
    600,87
    613,87
    626,86.64
    639,86.64
    652,86.64
    665,86.64
    678,86.28
    691,86.28
    704,85.92
    717,84.8
    730,84.48
  " fill="none" stroke="#3498db" stroke-width="3" stroke-linejoin="round"/>

  <!-- Data points -->
  <g fill="#3498db">
    <circle cx="80" r="4" cy="407.2"/>
    <circle cx="93" r="4" cy="143.68"/>
    <circle cx="106" r="4" cy="119.04"/>
    <circle cx="119" r="4" cy="110.76"/>
    <circle cx="132" r="4" cy="106.08"/>
    <circle cx="145" r="4" cy="103.56"/>
    <circle cx="158" r="4" cy="100.32"/>
    <circle cx="171" r="4" cy="98.88"/>
    <circle cx="184" r="4" cy="98.16"/>
    <circle cx="197" r="4" cy="97.8"/>
    <circle cx="210" r="4" cy="96.72"/>
    <circle cx="223" r="4" cy="96.36"/>
    <circle cx="236" r="4" cy="95.64"/>
    <circle cx="249" r="4" cy="94.56"/>
    <circle cx="262" r="4" cy="94.56"/>
    <circle cx="275" r="4" cy="93.84"/>
    <circle cx="288" r="4" cy="93.84"/>
    <circle cx="301" r="4" cy="92.88"/>
    <circle cx="314" r="4" cy="92.52"/>
    <circle cx="327" r="4" cy="91.76"/>
    <circle cx="340" r="4" cy="91.28"/>
    <circle cx="353" r="4" cy="91.28"/>
    <circle cx="366" r="4" cy="90.6"/>
    <circle cx="379" r="4" cy="90.6"/>
    <circle cx="392" r="4" cy="89.88"/>
    <circle cx="405" r="4" cy="89.88"/>
    <circle cx="418" r="4" cy="89.88"/>
    <circle cx="431" r="4" cy="89.16"/>
    <circle cx="444" r="4" cy="89.16"/>
    <circle cx="457" r="4" cy="88.8"/>
    <circle cx="470" r="4" cy="88.8"/>
    <circle cx="483" r="4" cy="88.44"/>
    <circle cx="496" r="4" cy="88.44"/>
    <circle cx="509" r="4" cy="88.08"/>
    <circle cx="522" r="4" cy="88.08"/>
    <circle cx="535" r="4" cy="87.72"/>
    <circle cx="548" r="4" cy="87.72"/>
    <circle cx="561" r="4" cy="87"/>
    <circle cx="574" r="4" cy="87"/>
    <circle cx="587" r="4" cy="87"/>
    <circle cx="600" r="4" cy="87"/>
    <circle cx="613" r="4" cy="87"/>
    <circle cx="626" r="4" cy="86.64"/>
    <circle cx="639" r="4" cy="86.64"/>
    <circle cx="652" r="4" cy="86.64"/>
    <circle cx="665" r="4" cy="86.64"/>
    <circle cx="678" r="4" cy="86.28"/>
    <circle cx="691" r="4" cy="86.28"/>
    <circle cx="704" r="4" cy="85.92"/>
    <circle cx="717" r="4" cy="84.8"/>
    <circle cx="730" r="5" cy="84.48" fill="#e74c3c"/>  <!-- Final point highlighted -->
  </g>

  <!-- Final accuracy annotation -->
  <g>
    <rect x="600" y="75" width="120" height="50" rx="5" fill="#e8f5e9" stroke="#27ae60" stroke-width="2"/>
    <text x="660" y="95" font-family="Arial, sans-serif" font-size="14" font-weight="bold" text-anchor="middle" fill="#27ae60">
      Final Accuracy
    </text>
    <text x="660" y="115" font-family="monospace" font-size="18" font-weight="bold" text-anchor="middle" fill="#27ae60">
      93.2%
    </text>
  </g>

  <!-- Arrow pointing to final point -->
  <path d="M 660 125 L 730 84.48" stroke="#27ae60" stroke-width="2" fill="none" marker-end="url(#arrowhead-final)"/>

  <!-- Stats box -->
  <g>
    <rect x="80" y="440" width="280" height="50" rx="5" fill="#fff" stroke="#dee2e6" stroke-width="1"/>
    <text x="90" y="458" font-family="monospace" font-size="11" fill="#495057">
      Training: 60,000 samples | 50 epochs
    </text>
    <text x="90" y="473" font-family="monospace" font-size="11" fill="#495057">
      Time: 3.3 hours | Best: Epoch 49 (93.0%)
    </text>
  </g>

  <!-- Arrow marker for annotation -->
  <defs>
    <marker id="arrowhead-final" markerWidth="10" markerHeight="10" refX="9" refY="3" orient="auto">
      <polygon points="0 0, 10 3, 0 6" fill="#27ae60"/>
    </marker>
  </defs>
</svg>
